<svg width="3" height="142" viewBox="0 0 3 142" fill="none" xmlns="http://www.w3.org/2000/svg">
<g id="Group 25">
<path id="Line 33" d="M0.26416 28.4C0.26416 28.9523 0.711875 29.4 1.26416 29.4C1.81644 29.4 2.26416 28.9523 2.26416 28.4L0.26416 28.4ZM0.26416 0L0.26416 28.4L2.26416 28.4L2.26416 0L0.26416 0Z" fill="#A19AF1"/>
<path id="Line 34" d="M2.26416 36.6833C2.26416 36.1311 1.81645 35.6833 1.26416 35.6833C0.711876 35.6833 0.26416 36.1311 0.26416 36.6833L2.26416 36.6833ZM0.26416 36.6833L0.264154 67.45L2.26415 67.45L2.26416 36.6833L0.26416 36.6833Z" fill="#A19AF1"/>
<path id="Line 35" d="M2.26416 74.5502C2.26416 73.9979 1.81645 73.5502 1.26416 73.5502C0.711876 73.5502 0.26416 73.9979 0.26416 74.5502L2.26416 74.5502ZM0.26416 74.5502L0.264154 105.317L2.26415 105.317L2.26416 74.5502L0.26416 74.5502Z" fill="#A19AF1"/>
<path id="Line 36" d="M2.26416 113.6C2.26416 113.048 1.81645 112.6 1.26416 112.6C0.711876 112.6 0.26416 113.048 0.26416 113.6L2.26416 113.6ZM0.26416 113.6L0.264154 142L2.26415 142L2.26416 113.6L0.26416 113.6Z" fill="#A19AF1"/>
</g>
</svg>
